<?xml version="1.0" encoding="utf-8"?>
<!-- Generator: Adobe Illustrator 25.0.1, SVG Export Plug-In . SVG Version: 6.00 Build 0)  -->
<svg version="1.0" id="Layer_1" xmlns="http://www.w3.org/2000/svg" xmlns:xlink="http://www.w3.org/1999/xlink" x="0px" y="0px"
	 viewBox="0 0 862 547" style="enable-background:new 0 0 862 547;" xml:space="preserve">
<style type="text/css">
	.st0{fill:#EE435A;}
	.st1{fill:#444444;}
	.st2{fill:none;}
</style>
<path class="st0" d="M97.8,196.7c19-16.2,43.8-26,69-25.8c22.3-0.5,44.3,5.8,62.9,18c15.9,10.5,28.4,25.4,36.1,42.9
	c21.4,51.1-2.6,109.9-53.7,131.3c-15.2,6.4-31.7,8.9-48,7.4c-14.8-1.2-28.8-6.7-42-13.4c0.2,4.6,3.7,8,4.7,12.4
	c-0.1,5.8-7.5,8.3-12.2,5.9c-37.3-20.1-58.5-64-54.6-105.7C62.3,241.5,76.4,214.8,97.8,196.7 M184.7,210.1c-3.8,1.5-6.5,5-7,9.2
	c0.3,5.9,5.1,10,9,13.9c1.5,1.6,3.9,3.7,2.4,6.1c-1.8,4.9-8.1,4-12.3,4.3c-11.9,0.5-24.3-4.1-31.5-14c-3.1-3.8-5.2-9.9-11-9.9
	c-5.5,0.9-9.5,5.3-13.1,9.1c-12.9,14.6-18.6,35.3-14.5,54.4c3.9,19.3,17.5,36.1,35.2,44.7c27.4,13.6,64,6.5,83.1-17.8
	c11.7-14.7,15.9-34.9,11.8-53.1c-4.3-19.5-18-37.1-36.6-44.9C195.3,210.2,189.8,208.1,184.7,210.1L184.7,210.1z"/>
<path class="st1" d="M326,221.1c10.7-0.3,21.5-0.1,32.2-0.1c19.6-0.1,37.1,17.7,37.2,37.2c0.4,15-8.7,30.1-22.7,36
	c-7.4,3.5-15.6,3.2-23.6,3.5c-3.2,0.1-7.2,0.8-8.6,4.1c-2.7,8.5,0.7,17.9-2.8,26.2c-3.3,7.8-14.6,8.8-20.6,3.6
	c-2.9-2.7-3.9-6.9-3.8-10.8c0-28.4,0-56.8,0-85.2c0.1-3.6,0.7-7.5,2.9-10.4S322.5,221.4,326,221.1 M343.2,244.6
	c-2,0.6-3.5,2.5-3.6,4.6c-0.9,6.3-1,12.7-0.2,19c0.2,2.1,1.3,4.7,3.7,4.9c6.6,1.1,14.1,1.1,19.9-2.6c8.2-5.3,7.4-19.4-1.1-23.9
	C356.2,243.6,349.4,243.5,343.2,244.6 M571.2,221.4c6.8-1.1,13.8-0.3,20.7-0.8c8.4,0.6,17.2-0.7,25.3,2c8.6,2.7,15.9,8.3,20.6,15.9
	c6.8,10.8,7.4,24.9,2.3,36.6c-4.8,10.8-14.3,18.6-25.8,21.2c-7.3,1.8-14.9,0.2-22.2,2.1c-4,1.3-4.3,6.1-4.5,9.7
	c-0.5,7.2,1.3,15.2-3,21.6c-4.2,6.8-15.2,6.9-19.9,0.6c-3.3-4-3.5-9.6-3.5-14.6c0.1-26.6-0.1-53.3,0.1-80
	C561.2,229.4,564.4,222.4,571.2,221.4 M591.1,244.9c-3.2,1.3-3.4,5.1-3.7,8c-0.2,5.5-0.6,11.2,0.7,16.7c0.4,2.4,2.9,3.6,5.2,3.7
	c6.7,0.8,14.4,0.5,19.7-4.2c6.9-6,5.3-18.8-3-22.9C604,243.7,597.3,243.2,591.1,244.9 M517.3,223.6c5.2-2.2,12.4-1.9,16.1,3
	c3.4,4.3,3.3,10.1,3.5,15.4c0.1,2.2,0.4,5,2.8,5.9c4.2,1.4,9.6,1.1,12,5.5c2.7,5.2,2.8,12.5-1.2,17c-3.5,4.3-11.8,1.5-13.3,7.8
	c-0.7,13.8,0,27.6-0.3,41.4c-0.2,3.9-1.1,7.9-3.7,10.9c-3.8,4.8-11.2,5.6-16.3,2.6c-4.9-3.2-6.2-9.4-6.2-14.9
	c0-10.1-0.1-20.1,0-30.2c0-4.1,1-8.7-1.5-12.2c-3.1-4.2-9.9-1.5-12.9-6c-3.7-5.4-3.4-12.6,0.6-17.8c2.9-3.4,8-2.4,11.4-4.8
	c3.2-2.5,2.4-6.9,2.6-10.5C511,231.7,512.4,225.8,517.3,223.6 M766.3,223.5c5-1.8,11.7-1.7,15.3,2.7c3.3,4.1,3.4,9.6,3.4,14.7
	c0,2.4,0.3,5.5,2.7,6.8c3.8,1.9,8.9,0.9,11.7,4.5c4.1,5.4,4,12.9-0.2,18.2c-2.9,3.5-8,2.5-11.6,4.6c-2.7,1.8-2.7,5.4-2.7,8.3
	c0.5,10.4,0.2,20.9,0.3,31.3c-0.2,5.4,0.1,11.5-3.5,16c-3.4,4.6-10.2,5.6-15.2,3.3c-5.2-2.6-7.7-8.7-7.6-14.2c0-12.1,0-24.2,0-36.3
	c0-2.6,0.1-5.6-1.8-7.7c-3.3-3.7-9.9-1.4-12.6-6c-3.1-5.3-2.9-11.9,0.6-17c2.6-3.7,7.7-2.8,11.3-4.9c3.1-2.1,2.2-6.3,2.5-9.5
	C759.2,232.6,760.6,225.8,766.3,223.5 M470,248.8c4.7-1.4,10.5,0,13.1,4.4c3.3,4.8,2.5,10.8,2.8,16.2c0.5,8.3-0.5,16.7-0.2,25
	c0.5,9.3,0.4,18.6-0.1,28c-0.3,5.2-3.5,10.7-8.8,11.9c-4.4,1.4-8.6-0.9-12.7-2.1c-3.7-1.3-7.4,0.6-11,1.3
	c-13.3,3.4-27.3,0.1-37.8-8.7c-12-9.9-18.1-26.5-14.8-41.7c2.8-14.3,13.2-26.9,27-31.8c9.9-3.8,21-3.2,31.1,0
	C462.6,252.6,466.2,249.8,470,248.8 M436,273.7c-8.8,3.1-14.6,13.3-12,22.4c2.5,10.8,15.2,18.1,25.6,13.6
	c11.3-3.7,15.8-18.9,9.3-28.6C454.4,273.4,444.2,270.6,436,273.7 M717.6,249.1c6.6-2.5,14.6,1.4,16.2,8.4c1.4,7.2,1.1,14.7,1,22.1
	c-1,14.6,0.9,29.2-0.6,43.8c-0.8,6-5.7,11.8-12.1,11.2c-5.3,0.5-9.8-4.4-15.1-2.4c-10.1,3.2-21.2,3.8-31.2-0.1
	c-17.6-6.4-29.2-25.4-27.4-44c1.2-17.9,14.8-34.4,32.4-38.3c8.5-2.1,17.4-1.1,25.7,1.4C710.3,252.6,714,250.1,717.6,249.1
	 M685,273.4c-7.8,2.4-13.2,10.5-12.7,18.5c-0.3,10.9,10.3,20.5,21.1,18.9c11.1-1,19.9-12.9,16.8-23.8
	C707.8,276.3,695.3,269.7,685,273.4L685,273.4z"/>
<rect x="31" y="146" class="st2" width="800" height="255"/>
</svg>
