<svg id="Vector_Smart_Object" data-name="Vector Smart Object" xmlns="http://www.w3.org/2000/svg" xmlns:xlink="http://www.w3.org/1999/xlink" width="181" height="58" viewBox="0 0 181 58">
  <defs>
    <clipPath id="clip-path">
      <rect id="Rectangle_2" data-name="Rectangle 2" width="181" height="58" fill="none"/>
    </clipPath>
  </defs>
  <g id="Group_4" data-name="Group 4">
    <g id="Group_3" data-name="Group 3" clip-path="url(#clip-path)">
      <path id="Path_225" data-name="Path 225" d="M11.21,19.748l4.939,4.378C19.534,18.293,26.22,6.62,26.22,6.62L36.813,25.861s5.969-.009,8.672-.024A3.069,3.069,0,0,0,48.5,23.2a3.013,3.013,0,0,0-1.991-3.275,4.483,4.483,0,0,0-1.5-.194,7.73,7.73,0,0,1-3.871-.784A6.538,6.538,0,0,1,43.507,6.662c.313-.035,27.506-.064,27.72-.064V29.277H55.861V25.845H67.75V19.731H55.829v-3.55H67.745V10.122c-.176-.009-15.716-.029-23.314-.024a3.069,3.069,0,1,0-.158,6.131,10.847,10.847,0,0,1,3.228.321,6.575,6.575,0,0,1-1.268,12.773,10.546,10.546,0,0,1-1.154.068c-3.281.005-10.295.012-10.295.012L26.22,13.729,17.028,29.567,3.468,17.553v11.8H0V6.6H.56q5.133,0,10.265,0a6.555,6.555,0,0,1,1.238,13.027c-.243.032-.484.069-.854.122M3.465,16.2c2.669,0,5.281.076,7.886-.028A2.926,2.926,0,0,0,14.1,13.293,3.05,3.05,0,0,0,10.937,10.1c-2.35-.019-4.7-.006-7.05,0-.136,0-.271.025-.422.039Z" fill="#29443a"/>
      <path id="Path_226" data-name="Path 226" d="M75.522,6.623H90.259v3.463H79V16.15H90.289v3.566h-11.3v6.126h.618l20.531.054a3.077,3.077,0,1,0,.219-6.139,16.411,16.411,0,0,1-2.461-.143A6.53,6.53,0,0,1,99,6.68c2.63-.029,5.26-.006,7.934-.006v3.474h-.568c-2.4,0-4.808-.012-7.212.005A3.072,3.072,0,0,0,96.149,12.8a2.959,2.959,0,0,0,2,3.258,8.679,8.679,0,0,0,2.231.206,6.866,6.866,0,0,1,3.76,1.168,6.536,6.536,0,0,1-2.955,11.89,8.234,8.234,0,0,1-.943.064q-12.108-.031-24.216-.07h-.507Z" fill="#29443a"/>
      <path id="Path_227" data-name="Path 227" d="M0,34.711H3.485v.638c0,3.438-.01,6.877,0,10.315a5.661,5.661,0,0,0,11.258.959,9.566,9.566,0,0,0,.085-1.257q.01-5,0-10v-.65h3.452V44.833h6.441V34.724h3.558v10.11h5.282V34.726h3.576V44.849H59.571V34.73h3.595V44.846H73.484V34.714H77.06V44.843h5.284V34.716H85.9V44.841h5.454V34.718h3.459v13.64h-.727c-25.182,0-76.163-.01-76.163-.01s-.026.116-.188.564A9.109,9.109,0,0,1,.222,47.627a11.04,11.04,0,0,1-.21-2.139C-.009,42.1,0,38.717,0,35.331v-.62" fill="#29443a"/>
      <path id="Path_228" data-name="Path 228" d="M97.8,54.971V51.508c.385-.058.749-.1,1.1-.169a5.706,5.706,0,0,0,4.6-5.636c.009-3.438,0-6.877,0-10.315v-.664h3.479v.57q0,5.132,0,10.263a9.2,9.2,0,0,1-7.815,9.289c-.427.074-.865.08-1.37.124" fill="#29443a"/>
      <path id="Path_229" data-name="Path 229" d="M56.29,51.984l2.481-2.478,2.522,2.517L58.805,54.5l-2.515-2.52" fill="#29443a"/>
      <path id="Path_230" data-name="Path 230" d="M50.812,52,53.3,49.511l2.512,2.513-2.488,2.491L50.812,52" fill="#29443a"/>
      <path id="Path_231" data-name="Path 231" d="M26.22,21.025s-1.989,3.649-2.953,5.44l2.953,2.956,2.953-2.956c-.965-1.791-2.953-5.44-2.953-5.44" fill="#eac579"/>
      <path id="Path_232" data-name="Path 232" d="M151.992,0A29,29,0,1,0,181,29,29.037,29.037,0,0,0,151.992,0m27.125,29a27.15,27.15,0,0,1-.385,4.526l-1.83-.49a1.207,1.207,0,0,0-1.225.378,1.719,1.719,0,0,0-1.116-.925,1.7,1.7,0,0,0-2.075,1.2l-.465,1.736,1.651.442-.083.309a.686.686,0,0,1-.84.485l-2.064-.553a19.844,19.844,0,0,0,1.142-4.56h2.2a1.207,1.207,0,0,0,1.085-.682,1.72,1.72,0,0,0,1.318.6,1.7,1.7,0,0,0,1.694-1.694v-1.8h-1.709v-.321a.686.686,0,0,1,.686-.685h1.935c.05.67.084,1.345.084,2.028M166.858,44.573l.9-.9a1.188,1.188,0,0,1,1.834,1.485l-.959-.959-.367.367,2.187,2.186-.9.9a1.188,1.188,0,0,1-1.834-1.485l.959.959.367-.367ZM167.4,43.3l-1.271,1.271,1.209,1.208-.227.226a.686.686,0,0,1-.969,0l-1.516-1.515a20.169,20.169,0,0,0,3.269-3.377l1.909,1.1a1.206,1.206,0,0,0,1.281-.048,1.72,1.72,0,0,0,.839,1.183,1.7,1.7,0,0,0,2.315-.62l.9-1.557-1.48-.854.16-.278a.686.686,0,0,1,.937-.251l1.68.97a27.188,27.188,0,0,1-3.55,5.517l-1.333-1.333a1.206,1.206,0,0,0-1.25-.285,1.719,1.719,0,0,0-.5-1.359,1.7,1.7,0,0,0-2.4,0M162.07,51.39a1.7,1.7,0,0,0,2.315.62l1.557-.9-.854-1.48.278-.16a.686.686,0,0,1,.936.251l.966,1.672a27.066,27.066,0,0,1-5.826,3.022l-.491-1.832a1.206,1.206,0,0,0-.94-.871,1.718,1.718,0,0,0,.243-1.429,1.7,1.7,0,0,0-2.075-1.2l-1.737.465.442,1.65-.309.083a.686.686,0,0,1-.84-.485l-.552-2.061a19.841,19.841,0,0,0,4.522-1.29l1.1,1.9a1.207,1.207,0,0,0,1.133.6,1.719,1.719,0,0,0,.135,1.443m.25-3.5,1.108-.639a1.188,1.188,0,0,1,1.387,1.909l-.678-1.175-.45.26,1.546,2.678-1.108.639a1.188,1.188,0,0,1-1.387-1.909l.678,1.175.449-.26Zm-8.463,5.125a1.718,1.718,0,0,0,.605-1.318A1.7,1.7,0,0,0,152.768,50h-1.8v1.709h-.32a.686.686,0,0,1-.686-.686V48.894a19.779,19.779,0,0,0,4.7-.081l.569,2.122a1.206,1.206,0,0,0,.94.871,1.718,1.718,0,0,0-.243,1.429,1.7,1.7,0,0,0,2.075,1.2l1.737-.465-.442-1.65.31-.083a.686.686,0,0,1,.84.485l.5,1.871a26.932,26.932,0,0,1-6.411,1.4V54.1a1.205,1.205,0,0,0-.682-1.085m-1.362-1.5V54.6h-1.279a1.187,1.187,0,0,1-.246-2.346v1.356h.519V50.521h1.279a1.187,1.187,0,0,1,.246,2.346V51.512Zm4.583-1.593,1.235-.331a1.187,1.187,0,0,1,.845,2.2l-.351-1.31-.5.134.8,2.987-1.235.331a1.187,1.187,0,0,1-.845-2.2l.351,1.31.5-.134Zm-5.086-2.8a18.1,18.1,0,0,1-11.368-32.2V22a5.256,5.256,0,0,0,3.321,4.881,7.471,7.471,0,0,0-2.97,5.963v.1a7.489,7.489,0,0,0,7.482,7.479h7.952V32.638h1.7A3.369,3.369,0,0,1,161.476,36v8.4a17.988,17.988,0,0,1-9.484,2.709m-6.858,5.531.8-2.987,1.235.331a1.188,1.188,0,0,1-.369,2.33l.351-1.31-.5-.134-.8,2.987-1.235-.331a1.187,1.187,0,0,1,.37-2.33l-.351,1.31Zm-.927-1.8a1.719,1.719,0,0,0-.926,1.116,1.7,1.7,0,0,0,1.2,2.075l1.737.465.443-1.65.31.083a.686.686,0,0,1,.485.839l-.5,1.872a26.9,26.9,0,0,1-6.251-1.994l.945-1.636a1.205,1.205,0,0,0-.048-1.28,1.719,1.719,0,0,0,1.183-.839,1.7,1.7,0,0,0-.62-2.314l-1.557-.9-.855,1.48L139.47,48a.686.686,0,0,1-.251-.936l1.073-1.857A19.988,19.988,0,0,0,144.4,47.5l-.568,2.121a1.206,1.206,0,0,0,.378,1.224m-7.782-5.567-2.187,2.186-.9-.9a1.188,1.188,0,0,1,1.485-1.833l-.959.959.367.367,2.187-2.186.9.9a1.188,1.188,0,0,1-1.485,1.833l.959-.959Zm-.1,2.025a1.72,1.72,0,0,0,1.36-.5,1.7,1.7,0,0,0,0-2.4l-1.271-1.271-1.209,1.208-.227-.227a.686.686,0,0,1,0-.969l1.516-1.515a20.166,20.166,0,0,0,3.377,3.268l-1.1,1.908a1.206,1.206,0,0,0,.048,1.28,1.719,1.719,0,0,0-1.183.839,1.7,1.7,0,0,0,.62,2.314l1.557.9.855-1.48.278.16a.686.686,0,0,1,.251.936l-.97,1.68a27.2,27.2,0,0,1-5.518-3.549l1.333-1.333a1.205,1.205,0,0,0,.285-1.249m2.92,2.765,1.546-2.678,1.107.639a1.187,1.187,0,0,1-.96,2.155l.678-1.174-.449-.26-1.546,2.678-1.107-.639a1.187,1.187,0,0,1,.96-2.155L138.8,49.8Zm-6.5-9.373-2.679,1.546-.639-1.107a1.188,1.188,0,0,1,1.909-1.386l-1.175.678.259.45,2.678-1.546.639,1.107a1.188,1.188,0,0,1-1.909,1.386L133,41.141Zm-1.7-1.751a1.72,1.72,0,0,0-1.444.135,1.7,1.7,0,0,0-.62,2.314l.9,1.557,1.48-.854.16.278a.686.686,0,0,1-.251.936l-1.673.965a27.069,27.069,0,0,1-3.023-5.824l1.833-.491a1.206,1.206,0,0,0,.872-.94,1.719,1.719,0,0,0,1.43.243,1.7,1.7,0,0,0,1.2-2.075l-.465-1.736-1.651.442-.083-.309a.686.686,0,0,1,.485-.839l2.061-.552a19.824,19.824,0,0,0,1.291,4.521l-1.9,1.1a1.207,1.207,0,0,0-.6,1.133M124.867,29a27.154,27.154,0,0,1,.385-4.526l1.83.49a1.206,1.206,0,0,0,1.225-.378,1.719,1.719,0,0,0,1.117.925,1.7,1.7,0,0,0,2.075-1.2l.465-1.736-1.651-.442.083-.309a.687.687,0,0,1,.84-.485l2.064.553a19.818,19.818,0,0,0-1.142,4.56h-2.2a1.207,1.207,0,0,0-1.085.682,1.72,1.72,0,0,0-1.318-.6,1.7,1.7,0,0,0-1.695,1.694v1.8h1.709v.321a.686.686,0,0,1-.686.685h-1.935c-.05-.67-.084-1.345-.084-2.028m12.258-15.574-.9.9a1.188,1.188,0,0,1-1.834-1.485l.959.959.367-.367-2.187-2.186.9-.9a1.188,1.188,0,0,1,1.834,1.485l-.959-.959-.367.367Zm-.537,1.271,1.271-1.271-1.209-1.208.227-.226a.686.686,0,0,1,.97,0l1.516,1.515a20.176,20.176,0,0,0-3.269,3.377l-1.909-1.1a1.207,1.207,0,0,0-1.281.048,1.72,1.72,0,0,0-.839-1.183,1.7,1.7,0,0,0-2.315.62l-.9,1.557,1.48.854-.16.278a.686.686,0,0,1-.936.251l-1.68-.97a27.183,27.183,0,0,1,3.55-5.517l1.334,1.333a1.207,1.207,0,0,0,1.25.285,1.719,1.719,0,0,0,.5,1.359,1.7,1.7,0,0,0,2.4,0M133.6,17.8l-.639,1.107a1.188,1.188,0,0,1-2.156-.96l1.175.678.259-.449-2.679-1.546.64-1.107a1.188,1.188,0,0,1,2.156.96l-1.175-.678-.26.45Zm-4.624.852a1.206,1.206,0,0,0,1.281-.048,1.719,1.719,0,0,0,.839,1.183,1.7,1.7,0,0,0,2.315-.62l.9-1.557-1.48-.854.16-.278a.686.686,0,0,1,.936-.251l1.858,1.072a19.982,19.982,0,0,0-2.292,4.1l-2.121-.568a1.207,1.207,0,0,0-1.225.378,1.719,1.719,0,0,0-1.116-.925,1.7,1.7,0,0,0-2.075,1.2l-.465,1.736,1.651.442-.083.31a.686.686,0,0,1-.84.485l-1.872-.5a26.871,26.871,0,0,1,1.995-6.25Zm-1.852,4.2.331-1.235a1.188,1.188,0,0,1,2.331.369l-1.31-.351-.134.5,2.987.8L131,24.179a1.188,1.188,0,0,1-2.331-.369l1.31.351.134-.5Zm-.742,6.644V28.224a1.188,1.188,0,0,1,2.347-.246h-1.357V28.5h3.093v1.279a1.188,1.188,0,0,1-2.347.246h1.357V29.5Zm.5,2.044a1.206,1.206,0,0,0,1.085-.682,1.719,1.719,0,0,0,1.318.6,1.7,1.7,0,0,0,1.695-1.694v-1.8h-1.709v-.32a.686.686,0,0,1,.686-.685h2.132a19.763,19.763,0,0,0,.081,4.7l-2.122.568a1.206,1.206,0,0,0-.872.939,1.72,1.72,0,0,0-1.43-.243,1.7,1.7,0,0,0-1.2,2.075l.465,1.736,1.651-.442.083.31a.686.686,0,0,1-.485.839l-1.872.5a26.9,26.9,0,0,1-1.4-6.41Zm3.486,3.766-2.987.8-.331-1.235a1.188,1.188,0,0,1,2.2-.845l-1.311.351.134.5,2.987-.8.331,1.235a1.188,1.188,0,0,1-2.2.845l1.31-.351Zm19.087-1.523V19.457h6.069a5.6,5.6,0,0,1,5.6,5.6v.1a5.6,5.6,0,0,1-4.716,5.52V24.211h-1.884V38.543h-6.069a5.6,5.6,0,0,1-5.6-5.6v-.1a5.6,5.6,0,0,1,4.716-5.52v6.467Zm10.58-2.667a7.471,7.471,0,0,0,2.97-5.963v-.1a7.489,7.489,0,0,0-7.482-7.48h-7.952v7.788h-1.7A3.369,3.369,0,0,1,142.508,22V13.6a18.093,18.093,0,0,1,20.852,29.49V36a5.256,5.256,0,0,0-3.321-4.881M141.914,6.609a1.7,1.7,0,0,0-2.315-.62l-1.557.9.855,1.48-.278.16a.686.686,0,0,1-.936-.251l-.966-1.672a27.077,27.077,0,0,1,5.826-3.022l.491,1.832a1.207,1.207,0,0,0,.94.871,1.717,1.717,0,0,0-.243,1.429,1.7,1.7,0,0,0,2.075,1.2l1.737-.465L147.1,6.8l.309-.083a.686.686,0,0,1,.84.485l.552,2.061a19.84,19.84,0,0,0-4.522,1.291l-1.1-1.9a1.207,1.207,0,0,0-1.133-.6,1.719,1.719,0,0,0-.135-1.443m-.25,3.5-1.108.639a1.188,1.188,0,0,1-1.387-1.909l.678,1.174.45-.259-1.546-2.678,1.108-.639a1.188,1.188,0,0,1,1.387,1.909l-.678-1.175-.45.259Zm8.463-5.125a1.718,1.718,0,0,0-.605,1.318A1.7,1.7,0,0,0,151.216,8h1.8V6.289h.32a.686.686,0,0,1,.686.685V9.106a19.777,19.777,0,0,0-4.7.081l-.569-2.122a1.207,1.207,0,0,0-.939-.872,1.72,1.72,0,0,0,.243-1.429,1.7,1.7,0,0,0-2.075-1.2l-1.737.465.442,1.65-.31.083a.686.686,0,0,1-.84-.485l-.5-1.871a26.917,26.917,0,0,1,6.411-1.4V3.9a1.205,1.205,0,0,0,.682,1.085m1.362,1.5V3.4h1.279a1.187,1.187,0,0,1,.246,2.346V4.387H152.5V7.478h-1.279a1.187,1.187,0,0,1-.246-2.346V6.488Zm-4.583,1.593-1.235.331a1.187,1.187,0,0,1-.845-2.2l.351,1.31.5-.134-.8-2.987,1.235-.331a1.187,1.187,0,0,1,.845,2.2l-.351-1.31-.5.134ZM158.85,5.355l-.8,2.987-1.235-.331a1.188,1.188,0,0,1,.37-2.33l-.351,1.31.5.134.8-2.987,1.235.331A1.188,1.188,0,0,1,159,6.8l.351-1.31Zm.927,1.8a1.72,1.72,0,0,0,.926-1.116,1.7,1.7,0,0,0-1.2-2.075L157.767,3.5l-.442,1.651-.31-.083a.686.686,0,0,1-.485-.839l.5-1.872a26.893,26.893,0,0,1,6.251,1.994l-.945,1.636a1.206,1.206,0,0,0,.048,1.28,1.718,1.718,0,0,0-1.183.839,1.7,1.7,0,0,0,.62,2.314l1.557.9.855-1.48.277.16a.686.686,0,0,1,.251.936L163.692,12.8a19.99,19.99,0,0,0-4.106-2.291l.569-2.121a1.206,1.206,0,0,0-.378-1.224m7.782,5.567,2.187-2.186.9.9a1.188,1.188,0,0,1-1.485,1.833l.959-.959-.367-.367-2.187,2.186-.9-.9a1.188,1.188,0,0,1,1.485-1.833l-.959.959Zm.1-2.025a1.718,1.718,0,0,0-1.36.5,1.7,1.7,0,0,0,0,2.4l1.271,1.271,1.209-1.208.226.227a.686.686,0,0,1,0,.969l-1.516,1.516a20.157,20.157,0,0,0-3.378-3.268l1.1-1.909a1.206,1.206,0,0,0-.048-1.28,1.72,1.72,0,0,0,1.183-.839,1.7,1.7,0,0,0-.62-2.314l-1.557-.9-.855,1.48-.278-.16a.686.686,0,0,1-.251-.936l.97-1.68a27.2,27.2,0,0,1,5.518,3.549l-1.333,1.333a1.206,1.206,0,0,0-.285,1.249m-2.921-2.765-1.546,2.678-1.108-.639a1.187,1.187,0,0,1,.96-2.155l-.678,1.174.449.259,1.546-2.678,1.108.639a1.187,1.187,0,0,1-.96,2.155l.678-1.174Zm6.5,9.373,2.678-1.546.639,1.107a1.188,1.188,0,0,1-1.909,1.386l1.175-.678-.26-.45-2.678,1.546-.639-1.107a1.188,1.188,0,0,1,1.909-1.386l-1.175.678Zm1.7,1.751a1.72,1.72,0,0,0,1.444-.135,1.7,1.7,0,0,0,.62-2.314l-.9-1.557-1.48.854-.16-.278a.686.686,0,0,1,.251-.936l1.672-.965a27.058,27.058,0,0,1,3.023,5.824l-1.832.491a1.206,1.206,0,0,0-.872.94,1.718,1.718,0,0,0-1.429-.243,1.7,1.7,0,0,0-1.2,2.075l.465,1.736,1.651-.442.083.309a.686.686,0,0,1-.485.839l-2.061.552a19.826,19.826,0,0,0-1.291-4.521l1.9-1.1a1.206,1.206,0,0,0,.6-1.133m2.959,4.056-2.987.8-.331-1.235a1.188,1.188,0,0,1,2.2-.845l-1.31.351.134.5,2.987-.8.331,1.235a1.188,1.188,0,0,1-2.2.845l1.31-.351ZM170.384,40.2l.639-1.107a1.188,1.188,0,0,1,2.156.96L172,39.371l-.259.449,2.678,1.546-.64,1.107a1.188,1.188,0,0,1-2.156-.96l1.175.678.259-.45Zm4.624-.852a1.206,1.206,0,0,0-1.281.048,1.718,1.718,0,0,0-.839-1.183,1.7,1.7,0,0,0-2.315.62l-.9,1.557,1.48.854-.16.278a.686.686,0,0,1-.936.251L168.2,40.7a19.981,19.981,0,0,0,2.292-4.1l2.121.568a1.206,1.206,0,0,0,1.225-.377,1.72,1.72,0,0,0,1.117.925,1.7,1.7,0,0,0,2.075-1.2l.465-1.736-1.651-.442.083-.31a.686.686,0,0,1,.84-.485l1.872.5a26.886,26.886,0,0,1-1.995,6.25Zm1.852-4.2-.331,1.235a1.188,1.188,0,0,1-2.331-.369l1.31.351.134-.5-2.987-.8.331-1.235a1.188,1.188,0,0,1,2.331.369l-1.31-.351-.134.5ZM177.6,28.5v1.279a1.188,1.188,0,0,1-2.347.246h1.357V29.5h-3.093V28.224a1.188,1.188,0,0,1,2.347-.246H174.51V28.5Zm-.5-2.044a1.206,1.206,0,0,0-1.085.682,1.719,1.719,0,0,0-1.318-.6A1.7,1.7,0,0,0,173,28.224v1.8h1.709v.32a.686.686,0,0,1-.686.685h-2.132a19.763,19.763,0,0,0-.081-4.7l2.122-.568a1.207,1.207,0,0,0,.872-.939,1.719,1.719,0,0,0,1.429.243,1.7,1.7,0,0,0,1.2-2.075l-.465-1.736-1.651.442-.083-.309a.686.686,0,0,1,.485-.839l1.872-.5a26.9,26.9,0,0,1,1.4,6.41ZM174.09,13.3l-1.629.94a1.206,1.206,0,0,0-.6,1.133,1.719,1.719,0,0,0-1.444.135,1.7,1.7,0,0,0-.62,2.314l.9,1.557,1.48-.854.16.277a.686.686,0,0,1-.251.936l-1.853,1.069a20.033,20.033,0,0,0-2.421-4.027l1.56-1.559a1.206,1.206,0,0,0,.285-1.249,1.72,1.72,0,0,0,1.36-.5,1.7,1.7,0,0,0,0-2.4l-1.271-1.271-1.209,1.208-.227-.227a.686.686,0,0,1,0-.969l1.36-1.36a27.34,27.34,0,0,1,4.42,4.845M156.52,2.268l-.49,1.829a1.206,1.206,0,0,0,.378,1.224,1.719,1.719,0,0,0-.926,1.116,1.7,1.7,0,0,0,1.2,2.075l1.737.465.443-1.651.309.083a.686.686,0,0,1,.485.839l-.553,2.063a19.844,19.844,0,0,0-4.561-1.142v-2.2a1.206,1.206,0,0,0-.682-1.085,1.72,1.72,0,0,0,.6-1.318,1.7,1.7,0,0,0-1.694-1.694h-1.8V4.586h-.32a.686.686,0,0,1-.686-.685V1.967c.67-.05,1.345-.084,2.028-.084a27.17,27.17,0,0,1,4.527.385m-20.227,4.64.941,1.629a1.206,1.206,0,0,0,1.133.6,1.718,1.718,0,0,0,.135,1.444,1.7,1.7,0,0,0,2.315.62l1.557-.9-.855-1.48.277-.16a.686.686,0,0,1,.936.251l1.07,1.852a20.025,20.025,0,0,0-4.028,2.42l-1.56-1.559a1.206,1.206,0,0,0-1.249-.285,1.719,1.719,0,0,0-.5-1.359,1.7,1.7,0,0,0-2.4,0l-1.271,1.271L134,12.459l-.227.227a.686.686,0,0,1-.969,0l-1.36-1.36a27.344,27.344,0,0,1,4.847-4.419m-6.4,37.788,1.63-.94a1.206,1.206,0,0,0,.6-1.133,1.719,1.719,0,0,0,1.444-.135,1.7,1.7,0,0,0,.62-2.314l-.9-1.557-1.48.854-.16-.277a.686.686,0,0,1,.251-.936l1.853-1.069a20.032,20.032,0,0,0,2.421,4.027l-1.56,1.559a1.206,1.206,0,0,0-.285,1.249,1.719,1.719,0,0,0-1.36.5,1.7,1.7,0,0,0,0,2.4l1.271,1.271,1.209-1.208.227.227a.686.686,0,0,1,0,.969l-1.36,1.36a27.341,27.341,0,0,1-4.42-4.845m17.571,11.037.49-1.829a1.205,1.205,0,0,0-.378-1.224,1.72,1.72,0,0,0,.926-1.116,1.7,1.7,0,0,0-1.2-2.075l-1.737-.465-.442,1.651-.31-.083a.686.686,0,0,1-.485-.839l.553-2.063a19.849,19.849,0,0,0,4.561,1.142v2.2a1.206,1.206,0,0,0,.682,1.085,1.719,1.719,0,0,0-.605,1.318,1.7,1.7,0,0,0,1.694,1.694h1.8V53.414h.321a.686.686,0,0,1,.686.685v1.934c-.671.05-1.345.084-2.028.084a27.178,27.178,0,0,1-4.528-.385m20.228-4.64-.941-1.629a1.207,1.207,0,0,0-1.133-.6,1.718,1.718,0,0,0-.135-1.443,1.7,1.7,0,0,0-2.315-.62l-1.557.9.855,1.48-.277.16a.686.686,0,0,1-.936-.251l-1.07-1.852a20.021,20.021,0,0,0,4.028-2.42l1.56,1.559a1.207,1.207,0,0,0,1.25.285,1.719,1.719,0,0,0,.5,1.359,1.7,1.7,0,0,0,2.4,0l1.271-1.271-1.209-1.208.227-.227a.686.686,0,0,1,.969,0l1.36,1.36a27.334,27.334,0,0,1-4.847,4.419" fill="#29443a"/>
    </g>
  </g>
</svg>
